<svg id="Capa_1" data-name="Capa 1" xmlns="http://www.w3.org/2000/svg" viewBox="0 0 600 550"><title>title-2</title><path d="M432.32,414.31h161v13H432.32Z" fill="none" stroke="#1d1d1b"/><path d="M185.25,31.06a72.87,72.87,0,0,0-31.45-7.15q-18,0-27.94,7.05-8.25,5.92-8.24,14.92,0,10.23,10.7,16.34,9.7,5.59,25.43,5.59a65.72,65.72,0,0,0,16.72-2.27,64.06,64.06,0,0,0,15.44-6.21l6.92,11.23a76.82,76.82,0,0,1-39.08,10.28q-26.52,0-41.2-11.7-12-9.44-12-23.26a27.5,27.5,0,0,1,6.16-17.33q6.34-8.14,17.9-12.74,12.56-4.94,29.13-4.93a84.76,84.76,0,0,1,37.56,8.57Z" fill="none" stroke="#1d1d1b"/><path d="M303,45.88a28,28,0,0,1-6.16,17.62q-6.3,8.15-18,12.79-12.45,5-29.08,5-26.43,0-41.25-11.89-12-9.66-12-23.49a27.69,27.69,0,0,1,6.16-17.38q6.35-8.19,17.91-12.88,12.5-5,29.12-5,26.34,0,41.3,12,11.94,9.66,11.94,23.25Zm-17.1-.09q0-10.47-10.71-16.63-9.75-5.62-25.43-5.63-18,0-27.94,7.24-8.25,6.06-8.24,15.06,0,10.34,10.7,16.58,9.86,5.78,25.48,5.78,17.91,0,28-7.39,8.23-6,8.24-14.92Z" fill="none" stroke="#1d1d1b"/><path d="M330,78.23H313.75V13.58H336.2l28,46.84,27.89-46.84h20.8V78.23H396.63V33.43l-26.71,44.8H356.66L330,33.61Z" fill="none" stroke="#1d1d1b"/><path d="M530.15,45.74A28,28,0,0,1,524,63.36q-6.3,8.15-18,12.79-12.45,5-29.08,5-26.43,0-41.25-11.89-12-9.66-12-23.49a27.66,27.66,0,0,1,6.15-17.38q6.35-8.19,17.91-12.89,12.5-5,29.12-5,26.34,0,41.31,12,11.93,9.68,11.93,23.26Zm-17.1-.09q0-10.47-10.7-16.63-9.77-5.64-25.44-5.64-18,0-27.94,7.25-8.25,6.06-8.24,15.06,0,10.34,10.7,16.58,9.85,5.77,25.48,5.78,17.91,0,27.95-7.39,8.24-6,8.24-14.92Z" fill="none" stroke="#1d1d1b"/><path d="M293.78,163.4H274.27l42.29-64.65h16.82l42.29,64.65H355.4L347,149.1H302.31Zm31-52.05-15.58,26.14h30.93Z" fill="none" stroke="#1d1d1b"/><path d="M399.26,163.4H383V98.75h22.46l28,46.84,27.89-46.84h20.8V163.4H465.9V118.6l-26.71,44.8H425.93l-26.67-44.61Z" fill="none" stroke="#1d1d1b"/><path d="M508.48,163.4H489l42.29-64.65h16.82l42.29,64.65H570.1l-8.43-14.3H517Zm31-52.05-15.58,26.14h30.93Z" fill="none" stroke="#1d1d1b"/><path d="M276.86,193.07v64.65H260l-50.16-47.65v47.65H193.64V193.07h19.84l47.13,44.8v-44.8Z" fill="none" stroke="#1d1d1b"/><path d="M387.58,366H322.93V301.34h16.91v51.53h47.74Z" fill="none" stroke="#1d1d1b"/><path d="M496.32,333.64a28,28,0,0,1-6.15,17.62q-6.3,8.14-18,12.79-12.45,5-29.08,5-26.43,0-41.25-11.89-12-9.66-12-23.49A27.61,27.61,0,0,1,396,316.26q6.35-8.2,17.9-12.89,12.51-5,29.13-5,26.34,0,41.3,12,11.94,9.66,11.94,23.26Zm-17.09-.1q0-10.46-10.71-16.62-9.75-5.64-25.43-5.64-18,0-27.94,7.25-8.25,6.06-8.25,15.06,0,10.32,10.71,16.58,9.84,5.77,25.48,5.78,17.9,0,27.94-7.39,8.25-6,8.24-14.92Z" fill="none" stroke="#1d1d1b"/><path d="M577.7,316.82a102.9,102.9,0,0,0-31.79-5.3q-11.92,0-18.89,2.22-6.74,2.19-6.73,6,0,3.51,7.34,4.74,4.59.79,18.33,1.28c4.27.19,8,.41,11.27.66s6,.54,8.29.85a49.67,49.67,0,0,1,11.61,2.8q11.22,4.4,11.22,15.06,0,11.46-13.87,17.71Q563.16,368,546,368a138.18,138.18,0,0,1-43.76-7.57l5.25-11.85A118.66,118.66,0,0,0,546,355.33q14.07,0,20.46-3c3.25-1.55,4.88-3.58,4.88-6.11q0-4.31-7.2-5.68-3.93-.76-16.63-1.28l-1.51-.05q-9.09-.33-15.49-.85-12.45-1.14-18.47-4.27-8.43-4.31-8.43-13.21,0-11.55,14.26-17.15,10.93-4.31,28.13-4.31a109,109,0,0,1,36.71,6.26l-4.93,11.22Z" fill="none" stroke="#1d1d1b"/><path d="M160.63,392q13.68,0,21,6.78a19,19,0,0,1,6.2,14.68q0,10.6-8.1,16.77-7.29,5.58-19.18,5.58H118.14v20.8H101.56V392Zm-2.37,30.55q6.68,0,9.9-2.93a7.82,7.82,0,0,0,2.6-6.11,7.54,7.54,0,0,0-3.41-6.54c-2.14-1.45-5.18-2.18-9.09-2.18H118.19v17.72h40.07Z" fill="none" stroke="#1d1d1b"/><path d="M300.11,424.26A28,28,0,0,1,294,441.88q-6.3,8.14-18,12.79-12.46,5-29.09,5-26.42,0-41.25-11.89-12-9.66-12-23.49a27.61,27.61,0,0,1,6.16-17.38q6.34-8.2,17.9-12.89,12.51-5,29.13-5,26.32,0,41.3,12,11.94,9.66,11.93,23.26Zm-17.1-.1q0-10.46-10.7-16.62-9.76-5.64-25.44-5.64-18,0-27.94,7.25-8.24,6.06-8.24,15.06,0,10.32,10.7,16.58,9.86,5.77,25.48,5.78,17.91,0,27.95-7.39,8.24-6,8.24-14.92Z" fill="none" stroke="#1d1d1b"/><path d="M394,439.13a15.29,15.29,0,0,1-6.87,13.36q-5.73,4-14.73,4H310.82V391.86h58q11,0,16.76,5.21a14.55,14.55,0,0,1,4.88,11.46,12.29,12.29,0,0,1-2.94,8.39q-2.88,3.31-9.47,5.68l2.18.43a17.34,17.34,0,0,1,9.43,5.11A15.38,15.38,0,0,1,394,439.27Zm-31-21.31q9.92,0,9.91-7a6.48,6.48,0,0,0-2.56-5.49,11.77,11.77,0,0,0-7.16-1.94H327.2v14.4Zm3.93,27q4.89,0,7.54-2a6.55,6.55,0,0,0,2.56-5.63,6.79,6.79,0,0,0-3.27-6.11,12.39,12.39,0,0,0-6.83-1.71H327.2v15.49Z" fill="none" stroke="#1d1d1b"/><path d="M386.45,477.33q13.5,0,20.51,6.58a17.75,17.75,0,0,1,5.68,13.5A17.49,17.49,0,0,1,405,512.52q-5.49,3.93-14.21,5.26L415,542H391.66l-21.55-24H344.87v24h-16.3V477.33Zm-2,28.8q5.6,0,8.67-2.94a7.74,7.74,0,0,0,2.46-5.88,6.77,6.77,0,0,0-3.27-5.82,14,14,0,0,0-7.95-2H344.82v16.72h39.55Z" fill="none" stroke="#1d1d1b"/><path d="M441.06,529h60.48v13H424.67V477.33h74.55v12.79H441.06v13h48v12.55h-48Z" fill="none" stroke="#1d1d1b"/><path d="M584.34,492.82a102.62,102.62,0,0,0-31.79-5.31q-11.92,0-18.89,2.23-6.74,2.17-6.73,6,0,3.51,7.34,4.74,4.61.81,18.33,1.28,6.39.28,11.27.66c3.26.25,6,.54,8.29.85a49.67,49.67,0,0,1,11.61,2.8Q595,510.48,595,521.14q0,11.46-13.88,17.71Q569.8,544,552.65,544a138.2,138.2,0,0,1-43.76-7.58l5.25-11.84a118.91,118.91,0,0,0,38.51,6.72q14.07,0,20.46-3c3.25-1.55,4.88-3.58,4.88-6.11q0-4.3-7.2-5.68-3.93-.76-16.62-1.28l-1.52-.05q-9.09-.33-15.49-.85-12.45-1.14-18.47-4.26-8.43-4.32-8.43-13.22,0-11.55,14.26-17.14,10.93-4.32,28.13-4.31a109,109,0,0,1,36.71,6.25l-4.93,11.22Z" fill="none" stroke="#1d1d1b"/><path d="M97.31,220.37h80.48v13H97.31Z" fill="none" stroke="#1d1d1b"/></svg>