<svg id="Capa_1" data-name="Capa 1" xmlns="http://www.w3.org/2000/svg" viewBox="0 0 600 550"><title>title-1</title><path d="M118,35.79h55.27V9.11h18.21V81.37H173.27V50.08H118V81.37H99.68V9.11H118Z" fill="none" stroke="#1d1d1b"/><path d="M227,66.86h67.6V81.37H208.63V9.11H292V23.4H227V38h53.63V52H227Z" fill="none" stroke="#1d1d1b"/><path d="M373.06,9.11q15.09,0,22.92,7.35a19.84,19.84,0,0,1,6.36,15.09,19.56,19.56,0,0,1-8.58,16.89q-6.13,4.39-15.88,5.88L405,81.37h-26.1L354.8,54.58H326.58V81.37H308.37V9.11Zm-2.22,32.18q6.24,0,9.69-3.28a8.65,8.65,0,0,0,2.75-6.56,7.55,7.55,0,0,0-3.65-6.51,15.68,15.68,0,0,0-8.9-2.28h-44.2V41.35h44.2Z" fill="none" stroke="#1d1d1b"/><path d="M279.48,170.68H261.32V98.42h25.09l31.29,52.36,31.18-52.36h23.24v72.26H354V120.6L324.1,170.68H309.28l-29.8-49.87Z" fill="none" stroke="#1d1d1b"/><path d="M401.55,170.68H379.74L427,98.42h18.79l47.28,72.26H470.43l-9.42-16H411.08Zm34.68-58.18-17.42,29.22h34.57Z" fill="none" stroke="#1d1d1b"/><path d="M593.73,98.42v72.26h-18.8l-56.06-53.26v53.26H500.71V98.42h22.18l52.68,50.08V98.42Z" fill="none" stroke="#1d1d1b"/><path d="M218.69,229.4a31.32,31.32,0,0,1-6.88,19.69q-7,9.1-20.12,14.29-13.92,5.56-32.51,5.56-29.53,0-46.11-13.29-13.38-10.8-13.39-26.25A30.9,30.9,0,0,1,106.56,210q7.09-9.16,20-14.4,14-5.61,32.56-5.61,29.43,0,46.17,13.44,13.33,10.8,13.34,26Zm-19.11-.11q0-11.7-12-18.58-10.91-6.3-28.43-6.3-20.12,0-31.23,8.1-9.21,6.78-9.21,16.83,0,11.55,12,18.53,11,6.47,28.48,6.46,20,0,31.24-8.26,9.21-6.72,9.21-16.67Z" fill="none" stroke="#1d1d1b"/><path d="M483.11,289.24v72.27h-18.9V289.24Z" fill="none" stroke="#1d1d1b"/><path d="M593.27,289.24v72.27H574.48l-56.06-53.26v53.26H500.26V289.24h22.18l52.67,50.09V289.24Z" fill="none" stroke="#1d1d1b"/><path d="M426.69,34.84H593.27v13H426.69Z" fill="none" stroke="#1d1d1b"/><path d="M154.79,437l31.82-55.48h21.54l-44.78,72.27H144.79L99.68,381.55h23.24Z" fill="none" stroke="#1d1d1b"/><path d="M233.94,439.31h67.6v14.51H215.62V381.55H299v14.3h-65V410.4h53.62v14H233.94Z" fill="none" stroke="#1d1d1b"/><path d="M408.37,381.55v72.27H389.58l-56.07-53.26v53.26H315.36V381.55h22.18l52.67,50.08V381.55Z" fill="none" stroke="#1d1d1b"/><path d="M432.32,420.31h161v13H432.32Z" fill="none" stroke="#1d1d1b"/><path d="M368.93,474.35v14.56H332.88v57.7h-19v-57.7H277.82V474.35Z" fill="none" stroke="#1d1d1b"/><path d="M489.26,510.45a31.29,31.29,0,0,1-6.88,19.7q-7,9.11-20.12,14.29Q448.34,550,429.76,550q-29.55,0-46.11-13.29-13.39-10.8-13.4-26.26A31,31,0,0,1,377.13,491q7.1-9.16,20-14.4,14-5.61,32.55-5.62,29.44,0,46.17,13.45,13.33,10.8,13.34,26Zm-19.11-.1q0-11.7-12-18.58-10.92-6.3-28.43-6.3-20.11,0-31.24,8.1-9.21,6.76-9.21,16.83,0,11.55,12,18.53,11,6.47,28.48,6.46,20,0,31.23-8.26,9.21-6.72,9.21-16.68Z" fill="none" stroke="#1d1d1b"/><path d="M566,474.35q15.09,0,22.93,7.36a19.87,19.87,0,0,1,6.35,15.09q0,10.8-8.58,16.88-6.13,4.4-15.88,5.88L598,546.61h-26.1l-24.09-26.79H519.54v26.79H501.33V474.35Zm-2.22,32.19q6.24,0,9.69-3.29a8.62,8.62,0,0,0,2.75-6.56,7.58,7.58,0,0,0-3.65-6.51,15.68,15.68,0,0,0-8.9-2.28h-44.2v18.69h44.2Z" fill="none" stroke="#1d1d1b"/></svg>